Coordinates
version=1
nRows=10
nColumns=40
inDegrees=yes

Units are S.I. units (second, meters, Newtons, ...)
Angles are in degrees.

endheader
time	pelvis_tilt	pelvis_list	pelvis_rotation	pelvis_tx	pelvis_ty	pelvis_tz	hip_flexion_r	hip_adduction_r	hip_rotation_r	knee_angle_r	knee_angle_r_beta	ankle_angle_r	subtalar_angle_r	mtp_angle_r	hip_flexion_l	hip_adduction_l	hip_rotation_l	knee_angle_l	knee_angle_l_beta	ankle_angle_l	subtalar_angle_l	mtp_angle_l	lumbar_extension	lumbar_bending	lumbar_rotation	arm_flex_r	arm_add_r	arm_rot_r	elbow_flex_r	pro_sup_r	wrist_flex_r	wrist_dev_r	arm_flex_l	arm_add_l	arm_rot_l	elbow_flex_l	pro_sup_l	wrist_flex_l	wrist_dev_l
     14.37000000	     -4.60489290	     -4.94783876	      0.50951947	      0.97922068	      0.92108916	      0.46985864	     22.92368044	      1.27006439	    -13.37326881	     19.30244247	     19.30244247	      3.46392150	     -1.91502055	     -3.37142980	      4.51598941	    -11.35882528	     -6.59193525	     36.27472374	     36.27472374	     12.25432039	    -10.44806761	    -13.40699191	    -11.15919869	      3.12753612	      2.22773986	     -9.99220448	    -14.28534182	     -1.09413409	     32.77526810	     46.40972417	      0.00000000	      0.00000000	      7.75936473	    -13.07570852	     -9.65127688	     83.87453370	     47.89406704	      0.00000000	      0.00000000
     14.38171429	     -4.73117128	     -5.20319470	      0.73471093	      0.97914632	      0.92207326	      0.47281470	     22.20456203	      1.72046308	    -13.82622993	     18.80279476	     18.80279476	      3.92497579	     -1.51002774	     -3.50067029	      6.67348918	    -12.06586156	     -5.31273891	     40.25144486	     40.25144486	      9.15116807	    -12.86563840	    -15.07125038	    -11.15567665	      3.31156610	      2.25197389	     -9.18658522	    -14.22820344	     -0.28420297	     34.11509573	     46.28700579	      0.00000000	      0.00000000	      6.91222618	    -12.51121139	     -9.75418338	     81.51912244	     47.86243312	      0.00000000	      0.00000000
     14.39342857	     -4.93424221	     -5.55727519	      0.98549242	      0.97887406	      0.92276000	      0.47579375	     21.52685323	      2.29866876	    -14.29894699	     18.16953137	     18.16953137	      4.24245447	     -1.16965182	     -3.56919582	      9.20073901	    -12.90106664	     -4.03781859	     44.57027472	     44.57027472	      6.61293005	    -14.21545207	    -15.02170855	    -11.13082955	      3.53133072	      2.21308217	     -8.17450279	    -14.08117738	     -0.09128348	     34.95985438	     46.24264277	      0.00000000	      0.00000000	      5.75260358	    -12.12155196	     -9.53118184	     79.91633969	     47.81360672	      0.00000000	      0.00000000
     14.40514286	     -5.03304990	     -5.70924399	      1.21427471	      0.97855057	      0.92345075	      0.47834115	     20.84575115	      2.59882961	    -14.76997813	     17.75433720	     17.75433720	      4.59969659	     -0.58655935	     -3.94384364	     11.66918411	    -13.26164593	     -2.54400028	     48.78047727	     48.78047727	      4.13861135	    -15.75648982	    -13.76429074	    -11.14631598	      3.70423784	      2.30281371	     -7.35173932	    -14.16328355	      0.77198575	     36.87860677	     46.10215941	      0.00000000	      0.00000000	      5.37508463	    -11.47971682	     -9.64112549	     76.22746604	     47.75712992	      0.00000000	      0.00000000
     14.41685714	     -5.15306704	     -6.03484201	      1.43991883	      0.97808648	      0.92386664	      0.48096499	     20.17920082	      3.13529399	    -15.13580751	     17.26035041	     17.26035041	      4.88371987	     -0.30007329	     -4.03269560	     14.26900062	    -13.85252550	     -1.19599081	     52.89614909	     52.89614909	      1.76836431	    -16.52544992	    -12.89847158	    -11.23218484	      3.94425108	      2.34648430	     -6.08654706	    -14.09424869	      0.87007576	     37.83621769	     46.06415110	      0.00000000	      0.00000000	      4.30362281	    -11.05204280	     -9.34157750	     74.59667686	     47.70180682	      0.00000000	      0.00000000
     14.42857143	     -5.26456234	     -6.11035738	      1.67459576	      0.97754904	      0.92429777	      0.48307393	     19.58218716	      3.30446037	    -15.68915606	     16.94791457	     16.94791457	      5.15416510	      0.34231127	     -4.53144739	     16.96990242	    -13.82325127	      0.40524406	     57.02490695	     57.02490695	      1.11480094	    -16.57917124	     -7.62755904	    -11.20826778	      4.02507783	      2.54713866	     -5.47207507	    -14.47255809	      1.90930830	     40.55937945	     45.88699314	      0.00000000	      0.00000000	      4.59777535	    -10.33935021	     -9.40549500	     68.88738760	     47.61130970	      0.00000000	      0.00000000
     14.44028571	     -5.40178169	     -6.30933303	      1.86747468	      0.97689794	      0.92452723	      0.48526436	     19.01796967	      3.67419429	    -15.96204729	     16.58662990	     16.58662990	      5.42594028	      0.67424331	     -4.75938874	     19.66531298	    -13.95346174	      1.79783612	     60.74977359	     60.74977359	      0.46702033	    -16.30160258	     -3.55612626	    -11.22419959	      4.16463236	      2.89357380	     -4.73855994	    -14.77558930	      2.49637362	     42.91390476	     45.75678014	      0.00000000	      0.00000000	      4.33688712	     -9.84128005	     -8.92862314	     65.13658885	     47.51118821	      0.00000000	      0.00000000
     14.45200000	     -5.46401090	     -6.47228558	      2.03715805	      0.97620089	      0.92474645	      0.48722516	     18.42236486	      3.97511950	    -16.28787735	     16.32291383	     16.32291383	      5.74751067	      1.03412036	     -4.91086892	     22.18183981	    -13.99605738	      3.02279775	     64.02171560	     64.02171560	     -0.11111821	    -16.08846612	     -0.70014834	    -11.31926396	      4.27828797	      3.07218960	     -3.60710302	    -14.99650050	      2.72184931	     44.79698279	     45.67214041	      0.00000000	      0.00000000	      4.04856207	     -9.32902579	     -8.66952936	     61.19617703	     47.42427978	      0.00000000	      0.00000000
     14.46371429	     -5.58418404	     -6.66053631	      2.21073594	      0.97541943	      0.92487475	      0.48913688	     17.88799787	      4.32536765	    -16.50148850	     16.02720726	     16.02720726	      6.07173515	      1.22568265	     -4.95899884	     24.62642833	    -14.05614628	      4.08651492	     66.68735857	     66.68735857	     -1.10634211	    -16.05836603	     -0.12911081	    -11.37550296	      4.36710316	      2.99815713	     -2.03858557	    -14.98706047	      2.59318541	     45.93541655	     45.64339449	      0.00000000	      0.00000000	      2.91347327	     -9.07275645	     -8.44314714	     59.13392589	     47.36424572	      0.00000000	      0.00000000
     14.47542857	     -5.58309767	     -6.78943958	      2.29719030	      0.97455713	      0.92519862	      0.49090169	     17.29781600	      4.60407202	    -16.61805269	     15.86802304	     15.86802304	      6.37180912	      1.45285984	     -5.01514495	     26.80766337	    -14.05947088	      4.88496562	     68.90198376	     68.90198376	     -1.65778178	    -15.99588860	      0.27164005	    -11.59164620	      4.40457033	      3.04233696	     -0.21582069	    -15.06707863	      2.48215131	     47.12930967	     45.61387817	      0.00000000	      0.00000000	      1.95278912	     -8.64526501	     -8.22847064	     56.89616295	     47.30425033	      0.00000000	      0.00000000
